<?xml version="1.0" encoding="UTF-8"?>
<svg width="16px" height="18px" viewBox="0 0 16 18" version="1.1" xmlns="http://www.w3.org/2000/svg" xmlns:xlink="http://www.w3.org/1999/xlink">
    <!-- Generator: Sketch 50.2 (55047) - http://www.bohemiancoding.com/sketch -->
    <title>Artboard 3</title>
    <desc>Created with Sketch.</desc>
    <defs></defs>
    <g id="Artboard-3" stroke="none" stroke-width="1" fill="none" fill-rule="evenodd">
        <path d="M8.50233449,2.37264945 L14.919018,8.78933294 C14.9676292,8.85414793 15.0000367,8.91896291 15.0000367,8.99998164 C15.0000367,9.08100037 14.9676292,9.14581536 14.919018,9.21063034 L8.50233449,15.6273138 C8.42131576,15.7083326 8.29168579,15.7245363 8.17825957,15.6921288 C8.06483334,15.6435176 8.00001836,15.5300914 8.00001836,15.4166651 L8.00001836,11.6249885 L1.29166743,11.6249885 C1.12962997,11.6249885 1,11.4953586 1,11.3333211 L1,6.66664219 C1,6.50460473 1.12962997,6.37497476 1.29166743,6.37497476 L8.00001836,6.37497476 L8.00001836,2.58329815 C8.00001836,2.46987192 8.06483334,2.3564457 8.17825957,2.30783446 C8.29168579,2.27542697 8.42131576,2.29163072 8.50233449,2.37264945 Z" id="right" fill="#000000"></path>
    </g>
</svg>